# xmcd
#
# Track frame offsets: 
#        150
#        11097
#        21530
#        47990
#        60275
#        72667
#        90737
#        106905
#        117490
#        128440
#        144550
#        163815
#        181962
#        194687
#        209250
#        230622
#        246182
#        259020
#        276775
#        291492
#
# Disc length: 4219 seconds
#
# Revision: 2
# Processed by: cddbd v1.5.2PL0 Copyright (c) Steve Scherf et al.
# Submitted via: ExactAudioCopy v1.0b3
#
DISCID=37107914
DTITLE=Aretha Franklin - Aretha's Best
DYEAR=2001
DGENRE=R&B
TTITLE0=Respect
TTITLE1=Think
TTITLE2=Freeway of Love
TTITLE3=Baby, I Love You
TTITLE4=A Natural Woman (You Make Me Feel Like)
TTITLE5=Day Dreaming
TTITLE6=I Say a Little Prayer
TTITLE7=The House That Jack Built
TTITLE8=(Sweet Sweet Baby) Since You've Been Gone
TTITLE9=Spanish Harlem
TTITLE10=Jump to It
TTITLE11=I Knew You Were Waiting (for Me) (with George Michael)
TTITLE12=Chain of Fools
TTITLE13=Rock Steady
TTITLE14=Who's Zoomin' Who
TTITLE15=Until You Come Back to Me (That's What I'm Gonna Do)
TTITLE16=I Never Loved a Man (the Way I Love You)
TTITLE17=Call Me
TTITLE18=Do Right Woman, Do Right Man
TTITLE19=Bridge over Troubled Water
EXTD=
EXTT0=
EXTT1=
EXTT2=
EXTT3=
EXTT4=
EXTT5=
EXTT6=
EXTT7=
EXTT8=
EXTT9=
EXTT10=
EXTT11=
EXTT12=
EXTT13=
EXTT14=
EXTT15=
EXTT16=
EXTT17=
EXTT18=
EXTT19=
PLAYORDER=
